<svg xmlns="http://www.w3.org/2000/svg" viewBox="-2.30 -2.30 223.57 22.60" role="img" aria-label="Applications"><path d="M1.28 15.12 L6.73 2.88 Q8.01 0.00 10.89 0.00 L23.85 0.00 Q26.73 0.00 25.45 2.88 L20.00 15.12 Q18.72 18.00 15.84 18.00 L15.06 18.00 Q12.60 18.00 13.69 15.54 L14.52 13.68 Q14.84 12.96 14.12 12.96 L9.08 12.96 Q8.36 12.96 8.04 13.68 L7.21 15.54 Q6.12 18.00 3.66 18.00 L2.88 18.00 Q0.00 18.00 1.28 15.12 Z M11.45 8.46 L15.77 8.46 Q16.85 8.46 17.33 7.38 L17.97 5.94 Q18.45 4.86 17.37 4.86 L13.05 4.86 Q11.97 4.86 11.49 5.94 L10.85 7.38 Q10.37 8.46 11.45 8.46 Z M31.41 0.00 L43.65 0.00 Q46.53 0.00 45.25 2.88 L42.77 8.46 Q41.49 11.34 38.61 11.34 L30.33 11.34 Q29.61 11.34 29.28 12.06 L27.92 15.12 Q26.64 18.00 23.76 18.00 L23.40 18.00 Q20.52 18.00 21.80 15.12 L27.25 2.88 Q28.53 0.00 31.41 0.00 Z M32.53 7.20 L36.13 7.20 Q37.21 7.20 37.69 6.12 L38.01 5.40 Q38.49 4.32 37.41 4.32 L33.81 4.32 Q32.73 4.32 32.25 5.40 L31.93 6.12 Q31.45 7.20 32.53 7.20 Z M51.21 0.00 L63.45 0.00 Q66.33 0.00 65.05 2.88 L62.57 8.46 Q61.29 11.34 58.41 11.34 L50.13 11.34 Q49.41 11.34 49.08 12.06 L47.72 15.12 Q46.44 18.00 43.56 18.00 L43.20 18.00 Q40.32 18.00 41.60 15.12 L47.05 2.88 Q48.33 0.00 51.21 0.00 Z M52.33 7.20 L55.93 7.20 Q57.01 7.20 57.49 6.12 L57.81 5.40 Q58.29 4.32 57.21 4.32 L53.61 4.32 Q52.53 4.32 52.05 5.40 L51.73 6.12 Q51.25 7.20 52.33 7.20 Z M71.01 0.00 L71.37 0.00 Q74.25 0.00 72.97 2.88 L68.96 11.88 Q68.64 12.60 69.36 12.60 L75.37 12.60 Q78.00 12.60 76.83 15.23 L76.77 15.37 Q75.60 18.00 72.97 18.00 L63.00 18.00 Q60.12 18.00 61.40 15.12 L66.85 2.88 Q68.13 0.00 71.01 0.00 Z M88.29 0.00 L88.65 0.00 Q91.53 0.00 90.25 2.88 L84.80 15.12 Q83.52 18.00 80.64 18.00 L80.28 18.00 Q77.40 18.00 78.68 15.12 L84.13 2.88 Q85.41 0.00 88.29 0.00 Z M96.21 0.00 L108.70 0.00 Q111.33 0.00 110.16 2.63 L110.10 2.77 Q108.93 5.40 106.30 5.40 L97.77 5.40 Q97.05 5.40 96.73 6.12 L94.16 11.88 Q93.84 12.60 94.56 12.60 L103.09 12.60 Q105.72 12.60 104.55 15.23 L104.49 15.37 Q103.32 18.00 100.69 18.00 L88.20 18.00 Q85.32 18.00 86.60 15.12 L92.05 2.88 Q93.33 0.00 96.21 0.00 Z M106.40 15.12 L111.85 2.88 Q113.13 0.00 116.01 0.00 L128.97 0.00 Q131.85 0.00 130.57 2.88 L125.12 15.12 Q123.84 18.00 120.96 18.00 L120.18 18.00 Q117.72 18.00 118.81 15.54 L119.64 13.68 Q119.96 12.96 119.24 12.96 L114.20 12.96 Q113.48 12.96 113.16 13.68 L112.33 15.54 Q111.24 18.00 108.78 18.00 L108.00 18.00 Q105.12 18.00 106.40 15.12 Z M116.57 8.46 L120.89 8.46 Q121.97 8.46 122.45 7.38 L123.09 5.94 Q123.57 4.86 122.49 4.86 L118.17 4.86 Q117.09 4.86 116.61 5.94 L115.97 7.38 Q115.49 8.46 116.57 8.46 Z M136.29 0.00 L149.02 0.00 Q151.65 0.00 150.48 2.63 L150.42 2.77 Q149.25 5.40 146.62 5.40 L144.03 5.40 Q143.31 5.40 142.99 6.12 L138.98 15.12 Q137.70 18.00 134.82 18.00 L134.46 18.00 Q131.58 18.00 132.86 15.12 L136.87 6.12 Q137.19 5.40 136.47 5.40 L133.88 5.40 Q131.25 5.40 132.42 2.77 L132.48 2.63 Q133.65 0.00 136.29 0.00 Z M156.33 0.00 L156.69 0.00 Q159.57 0.00 158.29 2.88 L152.84 15.12 Q151.56 18.00 148.68 18.00 L148.32 18.00 Q145.44 18.00 146.72 15.12 L152.17 2.88 Q153.45 0.00 156.33 0.00 Z M164.25 0.00 L176.49 0.00 Q179.37 0.00 178.09 2.88 L172.64 15.12 Q171.36 18.00 168.48 18.00 L156.24 18.00 Q153.36 18.00 154.64 15.12 L160.09 2.88 Q161.37 0.00 164.25 0.00 Z M162.72 13.14 L166.32 13.14 Q167.40 13.14 167.88 12.06 L170.61 5.94 Q171.09 4.86 170.01 4.86 L166.41 4.86 Q165.33 4.86 164.85 5.94 L162.12 12.06 Q161.64 13.14 162.72 13.14 Z M184.05 0.00 L196.29 0.00 Q199.17 0.00 197.89 2.88 L192.44 15.12 Q191.16 18.00 188.28 18.00 L187.92 18.00 Q185.04 18.00 186.32 15.12 L190.33 6.12 Q190.65 5.40 189.93 5.40 L185.61 5.40 Q184.89 5.40 184.57 6.12 L180.56 15.12 Q179.28 18.00 176.40 18.00 L176.04 18.00 Q173.16 18.00 174.44 15.12 L179.89 2.88 Q181.17 0.00 184.05 0.00 Z M203.85 0.00 L216.52 0.00 Q218.97 0.00 217.88 2.46 L217.82 2.58 Q216.73 5.04 214.27 5.04 L205.57 5.04 Q204.85 5.04 204.53 5.76 L204.45 5.94 Q204.13 6.66 204.85 6.66 L213.13 6.66 Q216.01 6.66 214.73 9.54 L212.24 15.12 Q210.96 18.00 208.08 18.00 L195.42 18.00 Q192.96 18.00 194.05 15.54 L194.11 15.42 Q195.20 12.96 197.66 12.96 L206.36 12.96 Q207.08 12.96 207.40 12.24 L207.48 12.06 Q207.81 11.34 207.09 11.34 L198.81 11.34 Q195.93 11.34 197.21 8.46 L199.69 2.88 Q200.97 0.00 203.85 0.00 Z" fill="#FFFFFF" fill-rule="evenodd" stroke="#0030FF" stroke-width="3.6" stroke-linejoin="round" paint-order="stroke"/></svg>