<svg xmlns="http://www.w3.org/2000/svg" viewBox="-2.30 -2.30 151.21 22.60" role="img" aria-label="Delivery"><path d="M10.89 0.00 L19.93 0.00 Q22.41 0.00 23.39 1.76 L23.44 1.84 Q24.41 3.60 23.31 6.08 L20.71 11.92 Q19.60 14.40 17.06 16.16 L16.94 16.24 Q14.40 18.00 11.92 18.00 L2.88 18.00 Q0.00 18.00 1.28 15.12 L6.73 2.88 Q8.01 0.00 10.89 0.00 Z M9.36 13.14 L12.96 13.14 Q14.04 13.14 14.52 12.06 L17.25 5.94 Q17.73 4.86 16.65 4.86 L13.05 4.86 Q11.97 4.86 11.49 5.94 L8.76 12.06 Q8.28 13.14 9.36 13.14 Z M30.69 0.00 L41.20 0.00 Q43.65 0.00 42.56 2.46 L42.50 2.58 Q41.41 5.04 38.95 5.04 L32.41 5.04 Q31.69 5.04 31.37 5.76 L31.29 5.94 Q30.97 6.66 31.69 6.66 L36.25 6.66 Q38.53 6.66 37.51 8.94 L37.46 9.06 Q36.45 11.34 34.16 11.34 L29.61 11.34 Q28.89 11.34 28.56 12.06 L28.48 12.24 Q28.16 12.96 28.88 12.96 L35.43 12.96 Q37.88 12.96 36.79 15.42 L36.73 15.54 Q35.64 18.00 33.18 18.00 L22.68 18.00 Q19.80 18.00 21.08 15.12 L26.53 2.88 Q27.81 0.00 30.69 0.00 Z M48.33 0.00 L48.69 0.00 Q51.57 0.00 50.29 2.88 L46.28 11.88 Q45.96 12.60 46.68 12.60 L52.69 12.60 Q55.32 12.60 54.15 15.23 L54.09 15.37 Q52.92 18.00 50.29 18.00 L40.32 18.00 Q37.44 18.00 38.72 15.12 L44.17 2.88 Q45.45 0.00 48.33 0.00 Z M65.61 0.00 L65.97 0.00 Q68.85 0.00 67.57 2.88 L62.12 15.12 Q60.84 18.00 57.96 18.00 L57.60 18.00 Q54.72 18.00 56.00 15.12 L61.45 2.88 Q62.73 0.00 65.61 0.00 Z M73.53 0.00 L73.89 0.00 Q76.77 0.00 75.49 2.88 L72.29 10.08 Q71.97 10.80 72.41 11.18 L73.60 12.22 Q74.04 12.60 74.82 12.22 L76.95 11.18 Q77.73 10.80 78.05 10.08 L81.25 2.88 Q82.53 0.00 85.41 0.00 L85.77 0.00 Q88.65 0.00 87.37 2.88 L84.33 9.72 Q83.04 12.60 79.99 14.38 L76.04 16.70 Q73.80 18.00 71.69 18.00 L71.59 18.00 Q69.48 18.00 68.41 16.70 L66.51 14.38 Q65.04 12.60 66.33 9.72 L69.37 2.88 Q70.65 0.00 73.53 0.00 Z M93.33 0.00 L103.84 0.00 Q106.29 0.00 105.20 2.46 L105.14 2.58 Q104.05 5.04 101.59 5.04 L95.05 5.04 Q94.33 5.04 94.01 5.76 L93.93 5.94 Q93.61 6.66 94.33 6.66 L98.89 6.66 Q101.17 6.66 100.15 8.94 L100.10 9.06 Q99.09 11.34 96.80 11.34 L92.25 11.34 Q91.53 11.34 91.20 12.06 L91.12 12.24 Q90.80 12.96 91.52 12.96 L98.07 12.96 Q100.52 12.96 99.43 15.42 L99.37 15.54 Q98.28 18.00 95.82 18.00 L85.32 18.00 Q82.44 18.00 83.72 15.12 L89.17 2.88 Q90.45 0.00 93.33 0.00 Z M110.97 0.00 L123.93 0.00 Q126.81 0.00 125.53 2.88 L123.44 7.57 Q122.81 9.00 121.32 9.97 L120.51 10.49 Q119.77 10.98 119.67 11.67 L119.18 15.25 Q118.80 18.00 115.92 18.00 L115.07 18.00 Q112.32 18.00 112.70 15.37 L113.00 13.29 Q113.10 12.60 112.38 12.60 L109.32 12.60 Q108.60 12.60 108.28 13.32 L107.37 15.37 Q106.20 18.00 103.57 18.00 L102.96 18.00 Q100.08 18.00 101.36 15.12 L106.81 2.88 Q108.09 0.00 110.97 0.00 Z M111.69 8.10 L116.01 8.10 Q117.09 8.10 117.57 7.02 L118.13 5.76 Q118.61 4.68 117.53 4.68 L113.21 4.68 Q112.13 4.68 111.65 5.76 L111.09 7.02 Q110.61 8.10 111.69 8.10 Z M131.49 0.00 L131.92 0.00 Q134.73 0.00 133.48 2.81 L132.49 5.04 Q132.17 5.76 132.89 5.76 L137.21 5.76 Q137.93 5.76 138.25 5.04 L139.24 2.81 Q140.49 0.00 143.30 0.00 L143.73 0.00 Q146.61 0.00 145.33 2.88 L142.93 8.28 Q141.65 11.16 138.77 11.16 L136.43 11.16 Q135.71 11.16 135.38 11.88 L133.94 15.12 Q132.66 18.00 129.78 18.00 L129.42 18.00 Q126.54 18.00 127.82 15.12 L129.26 11.88 Q129.59 11.16 128.87 11.16 L126.53 11.16 Q123.65 11.16 124.93 8.28 L127.33 2.88 Q128.61 0.00 131.49 0.00 Z" fill="#FFFFFF" fill-rule="evenodd" stroke="#0030FF" stroke-width="3.6" stroke-linejoin="round" paint-order="stroke"/></svg>